<?xml version="1.0" encoding="utf-8"?>
<!-- Generator: Adobe Illustrator 27.0.0, SVG Export Plug-In . SVG Version: 6.00 Build 0)  -->
<svg version="1.1" id="Layer_1" xmlns="http://www.w3.org/2000/svg" xmlns:xlink="http://www.w3.org/1999/xlink" x="0px" y="0px"
	 viewBox="0 0 512 512" style="enable-background:new 0 0 512 512;" xml:space="preserve">
<style type="text/css">
	.st0{opacity:0.2;}
	.st1{fill:#1E1E1E;}
	.st2{opacity:0.4;}
	.st3{opacity:0.6;}
	.st4{opacity:0.8;}
	.st5{clip-path:url(#SVGID_00000117678103438554549750000006723176001752570778_);}
</style>
<g class="st0">
	<g>
		<g>
			<rect x="124.78" y="124.78" class="st1" width="65.61" height="65.61"/>
		</g>
		<g>
			<rect x="223.19" y="124.78" class="st1" width="65.61" height="65.61"/>
		</g>
		<g>
			<rect x="321.61" y="124.78" class="st1" width="65.61" height="65.61"/>
		</g>
		<g>
			<rect x="124.78" y="223.19" class="st1" width="65.61" height="65.61"/>
		</g>
		<g>
			<rect x="223.19" y="223.19" class="st1" width="65.61" height="65.61"/>
		</g>
		<g>
			<rect x="321.61" y="223.19" class="st1" width="65.61" height="65.61"/>
		</g>
		<g>
			<rect x="124.78" y="321.61" class="st1" width="65.61" height="65.61"/>
		</g>
		<g>
			<rect x="223.19" y="321.61" class="st1" width="65.61" height="65.61"/>
		</g>
		<g>
			<rect x="321.61" y="321.61" class="st1" width="65.61" height="65.61"/>
		</g>
	</g>
</g>
<g class="st2">
	<g>
		<g>
			<rect x="110.2" y="110.2" class="st1" width="72.9" height="72.9"/>
		</g>
		<g>
			<rect x="219.55" y="110.2" class="st1" width="72.9" height="72.9"/>
		</g>
		<g>
			<rect x="328.9" y="110.2" class="st1" width="72.9" height="72.9"/>
		</g>
		<g>
			<rect x="110.2" y="219.55" class="st1" width="72.9" height="72.9"/>
		</g>
		<g>
			<rect x="219.55" y="219.55" class="st1" width="72.9" height="72.9"/>
		</g>
		<g>
			<rect x="328.9" y="219.55" class="st1" width="72.9" height="72.9"/>
		</g>
		<g>
			<rect x="110.2" y="328.9" class="st1" width="72.9" height="72.9"/>
		</g>
		<g>
			<rect x="219.55" y="328.9" class="st1" width="72.9" height="72.9"/>
		</g>
		<g>
			<rect x="328.9" y="328.9" class="st1" width="72.9" height="72.9"/>
		</g>
	</g>
</g>
<g class="st3">
	<g>
		<g>
			<rect x="94" y="94" class="st1" width="81" height="81"/>
		</g>
		<g>
			<rect x="215.5" y="94" class="st1" width="81" height="81"/>
		</g>
		<g>
			<rect x="337" y="94" class="st1" width="81" height="81"/>
		</g>
		<g>
			<rect x="94" y="215.5" class="st1" width="81" height="81"/>
		</g>
		<g>
			<rect x="215.5" y="215.5" class="st1" width="81" height="81"/>
		</g>
		<g>
			<rect x="337" y="215.5" class="st1" width="81" height="81"/>
		</g>
		<g>
			<rect x="94" y="337" class="st1" width="81" height="81"/>
		</g>
		<g>
			<rect x="215.5" y="337" class="st1" width="81" height="81"/>
		</g>
		<g>
			<rect x="337" y="337" class="st1" width="81" height="81"/>
		</g>
	</g>
</g>
<g class="st4">
	<g>
		<g>
			<rect x="76" y="76" class="st1" width="90" height="90"/>
		</g>
		<g>
			<rect x="211" y="76" class="st1" width="90" height="90"/>
		</g>
		<g>
			<rect x="346" y="76" class="st1" width="90" height="90"/>
		</g>
		<g>
			<rect x="76" y="211" class="st1" width="90" height="90"/>
		</g>
		<g>
			<rect x="211" y="211" class="st1" width="90" height="90"/>
		</g>
		<g>
			<rect x="346" y="211" class="st1" width="90" height="90"/>
		</g>
		<g>
			<rect x="76" y="346" class="st1" width="90" height="90"/>
		</g>
		<g>
			<rect x="211" y="346" class="st1" width="90" height="90"/>
		</g>
		<g>
			<rect x="346" y="346" class="st1" width="90" height="90"/>
		</g>
	</g>
</g>
<g>
	<defs>
		<rect id="SVGID_1_" x="56" y="56" width="400" height="400.01"/>
	</defs>
	<clipPath id="SVGID_00000117637048532654119170000012348018940294481802_">
		<use xlink:href="#SVGID_1_"  style="overflow:visible;"/>
	</clipPath>
	<g style="clip-path:url(#SVGID_00000117637048532654119170000012348018940294481802_);">
		<g>
			<rect x="56" y="56" class="st1" width="100" height="100"/>
		</g>
		<g>
			<rect x="206" y="56" class="st1" width="100" height="100"/>
		</g>
		<g>
			<rect x="356" y="56" class="st1" width="100" height="100"/>
		</g>
		<g>
			<rect x="56" y="206" class="st1" width="100" height="100"/>
		</g>
		<g>
			<rect x="206" y="206" class="st1" width="100" height="100"/>
		</g>
		<g>
			<rect x="356" y="206" class="st1" width="100" height="100"/>
		</g>
		<g>
			<rect x="56" y="356" class="st1" width="100" height="100"/>
		</g>
		<g>
			<rect x="206" y="356" class="st1" width="100" height="100"/>
		</g>
		<g>
			<rect x="356" y="356" class="st1" width="100" height="100"/>
		</g>
	</g>
</g>
</svg>
